<mxfile host="app.diagrams.net" modified="2024-06-06T06:51:27.204Z" agent="Mozilla/5.0 (Macintosh; Intel Mac OS X 10_15_7) AppleWebKit/537.36 (KHTML, like Gecko) Chrome/125.0.0.0 Safari/537.36" etag="gxfmBG3-6SiYfBADz5oU" version="24.4.13" type="github">
  <diagram name="第 1 页" id="Xy6LXEZvLt63igF1gt5p">
    <mxGraphModel dx="1562" dy="833" grid="1" gridSize="10" guides="1" tooltips="1" connect="1" arrows="1" fold="1" page="1" pageScale="1" pageWidth="827" pageHeight="1169" math="0" shadow="0">
      <root>
        <mxCell id="0" />
        <mxCell id="1" parent="0" />
        <mxCell id="TqsmYCLOViqrvoBPUzZE-4" style="edgeStyle=orthogonalEdgeStyle;rounded=0;orthogonalLoop=1;jettySize=auto;html=1;exitX=0.5;exitY=1;exitDx=0;exitDy=0;entryX=0.5;entryY=0;entryDx=0;entryDy=0;" edge="1" parent="1" source="TqsmYCLOViqrvoBPUzZE-2" target="TqsmYCLOViqrvoBPUzZE-3">
          <mxGeometry relative="1" as="geometry" />
        </mxCell>
        <mxCell id="TqsmYCLOViqrvoBPUzZE-2" value="请求流量" style="rounded=1;whiteSpace=wrap;html=1;" vertex="1" parent="1">
          <mxGeometry x="340" y="80" width="120" height="60" as="geometry" />
        </mxCell>
        <mxCell id="TqsmYCLOViqrvoBPUzZE-6" style="edgeStyle=orthogonalEdgeStyle;rounded=0;orthogonalLoop=1;jettySize=auto;html=1;exitX=0;exitY=0.5;exitDx=0;exitDy=0;entryX=0.5;entryY=0;entryDx=0;entryDy=0;" edge="1" parent="1" source="TqsmYCLOViqrvoBPUzZE-3" target="TqsmYCLOViqrvoBPUzZE-5">
          <mxGeometry relative="1" as="geometry" />
        </mxCell>
        <mxCell id="TqsmYCLOViqrvoBPUzZE-7" value="CoreDNS" style="edgeLabel;html=1;align=center;verticalAlign=middle;resizable=0;points=[];" vertex="1" connectable="0" parent="TqsmYCLOViqrvoBPUzZE-6">
          <mxGeometry x="-0.0341" y="1" relative="1" as="geometry">
            <mxPoint as="offset" />
          </mxGeometry>
        </mxCell>
        <mxCell id="TqsmYCLOViqrvoBPUzZE-11" style="edgeStyle=orthogonalEdgeStyle;rounded=0;orthogonalLoop=1;jettySize=auto;html=1;exitX=1;exitY=0.5;exitDx=0;exitDy=0;" edge="1" parent="1" source="TqsmYCLOViqrvoBPUzZE-3" target="TqsmYCLOViqrvoBPUzZE-10">
          <mxGeometry relative="1" as="geometry" />
        </mxCell>
        <mxCell id="TqsmYCLOViqrvoBPUzZE-15" value="公网LB" style="edgeLabel;html=1;align=center;verticalAlign=middle;resizable=0;points=[];" vertex="1" connectable="0" parent="TqsmYCLOViqrvoBPUzZE-11">
          <mxGeometry x="-0.3943" y="-1" relative="1" as="geometry">
            <mxPoint as="offset" />
          </mxGeometry>
        </mxCell>
        <mxCell id="TqsmYCLOViqrvoBPUzZE-3" value="当前网络环境判断" style="rhombus;whiteSpace=wrap;html=1;" vertex="1" parent="1">
          <mxGeometry x="310" y="190" width="180" height="70" as="geometry" />
        </mxCell>
        <mxCell id="TqsmYCLOViqrvoBPUzZE-9" style="edgeStyle=orthogonalEdgeStyle;rounded=0;orthogonalLoop=1;jettySize=auto;html=1;exitX=0.5;exitY=1;exitDx=0;exitDy=0;" edge="1" parent="1" source="TqsmYCLOViqrvoBPUzZE-5" target="TqsmYCLOViqrvoBPUzZE-8">
          <mxGeometry relative="1" as="geometry" />
        </mxCell>
        <mxCell id="TqsmYCLOViqrvoBPUzZE-5" value="办公网" style="rounded=1;whiteSpace=wrap;html=1;" vertex="1" parent="1">
          <mxGeometry x="120" y="300" width="120" height="60" as="geometry" />
        </mxCell>
        <mxCell id="TqsmYCLOViqrvoBPUzZE-8" value="内网链路" style="rounded=1;whiteSpace=wrap;html=1;" vertex="1" parent="1">
          <mxGeometry x="120" y="430" width="120" height="60" as="geometry" />
        </mxCell>
        <mxCell id="TqsmYCLOViqrvoBPUzZE-13" style="edgeStyle=orthogonalEdgeStyle;rounded=0;orthogonalLoop=1;jettySize=auto;html=1;exitX=0.5;exitY=1;exitDx=0;exitDy=0;entryX=0.5;entryY=0;entryDx=0;entryDy=0;" edge="1" parent="1" source="TqsmYCLOViqrvoBPUzZE-10" target="TqsmYCLOViqrvoBPUzZE-12">
          <mxGeometry relative="1" as="geometry" />
        </mxCell>
        <mxCell id="TqsmYCLOViqrvoBPUzZE-10" value="外网 | VPN" style="rounded=1;whiteSpace=wrap;html=1;" vertex="1" parent="1">
          <mxGeometry x="530" y="300" width="120" height="60" as="geometry" />
        </mxCell>
        <mxCell id="TqsmYCLOViqrvoBPUzZE-17" style="edgeStyle=orthogonalEdgeStyle;rounded=0;orthogonalLoop=1;jettySize=auto;html=1;exitX=0.5;exitY=1;exitDx=0;exitDy=0;" edge="1" parent="1" source="TqsmYCLOViqrvoBPUzZE-12">
          <mxGeometry relative="1" as="geometry">
            <mxPoint x="590" y="550" as="targetPoint" />
          </mxGeometry>
        </mxCell>
        <mxCell id="TqsmYCLOViqrvoBPUzZE-12" value="信息化网关" style="rounded=1;whiteSpace=wrap;html=1;" vertex="1" parent="1">
          <mxGeometry x="530" y="430" width="120" height="60" as="geometry" />
        </mxCell>
        <mxCell id="TqsmYCLOViqrvoBPUzZE-39" style="edgeStyle=orthogonalEdgeStyle;rounded=0;orthogonalLoop=1;jettySize=auto;html=1;exitX=0.5;exitY=1;exitDx=0;exitDy=0;entryX=0.5;entryY=0;entryDx=0;entryDy=0;" edge="1" parent="1" source="TqsmYCLOViqrvoBPUzZE-18" target="TqsmYCLOViqrvoBPUzZE-28">
          <mxGeometry relative="1" as="geometry" />
        </mxCell>
        <mxCell id="TqsmYCLOViqrvoBPUzZE-40" value="否" style="edgeLabel;html=1;align=center;verticalAlign=middle;resizable=0;points=[];" vertex="1" connectable="0" parent="TqsmYCLOViqrvoBPUzZE-39">
          <mxGeometry x="-0.2" relative="1" as="geometry">
            <mxPoint as="offset" />
          </mxGeometry>
        </mxCell>
        <mxCell id="TqsmYCLOViqrvoBPUzZE-52" style="edgeStyle=orthogonalEdgeStyle;rounded=0;orthogonalLoop=1;jettySize=auto;html=1;entryX=0;entryY=0.5;entryDx=0;entryDy=0;" edge="1" parent="1" source="TqsmYCLOViqrvoBPUzZE-18" target="TqsmYCLOViqrvoBPUzZE-22">
          <mxGeometry relative="1" as="geometry" />
        </mxCell>
        <mxCell id="TqsmYCLOViqrvoBPUzZE-60" value="否" style="edgeLabel;html=1;align=center;verticalAlign=middle;resizable=0;points=[];" vertex="1" connectable="0" parent="TqsmYCLOViqrvoBPUzZE-52">
          <mxGeometry x="-0.3714" y="-4" relative="1" as="geometry">
            <mxPoint as="offset" />
          </mxGeometry>
        </mxCell>
        <mxCell id="TqsmYCLOViqrvoBPUzZE-18" value="出口IP白名单判断(CIDR)" style="rhombus;whiteSpace=wrap;html=1;" vertex="1" parent="1">
          <mxGeometry x="500" y="550" width="180" height="70" as="geometry" />
        </mxCell>
        <mxCell id="TqsmYCLOViqrvoBPUzZE-54" style="edgeStyle=orthogonalEdgeStyle;rounded=0;orthogonalLoop=1;jettySize=auto;html=1;" edge="1" parent="1" source="TqsmYCLOViqrvoBPUzZE-22" target="TqsmYCLOViqrvoBPUzZE-53">
          <mxGeometry relative="1" as="geometry" />
        </mxCell>
        <mxCell id="TqsmYCLOViqrvoBPUzZE-55" value="是" style="edgeLabel;html=1;align=center;verticalAlign=middle;resizable=0;points=[];" vertex="1" connectable="0" parent="TqsmYCLOViqrvoBPUzZE-54">
          <mxGeometry x="0.1333" y="2" relative="1" as="geometry">
            <mxPoint as="offset" />
          </mxGeometry>
        </mxCell>
        <mxCell id="TqsmYCLOViqrvoBPUzZE-74" style="edgeStyle=orthogonalEdgeStyle;rounded=0;orthogonalLoop=1;jettySize=auto;html=1;exitX=0.5;exitY=1;exitDx=0;exitDy=0;entryX=0.5;entryY=0;entryDx=0;entryDy=0;" edge="1" parent="1" source="TqsmYCLOViqrvoBPUzZE-22" target="TqsmYCLOViqrvoBPUzZE-65">
          <mxGeometry relative="1" as="geometry">
            <Array as="points">
              <mxPoint x="945" y="1150" />
              <mxPoint x="590" y="1150" />
            </Array>
          </mxGeometry>
        </mxCell>
        <mxCell id="TqsmYCLOViqrvoBPUzZE-22" value="限流+熔断判断" style="rhombus;whiteSpace=wrap;html=1;" vertex="1" parent="1">
          <mxGeometry x="860" y="545" width="170" height="80" as="geometry" />
        </mxCell>
        <mxCell id="TqsmYCLOViqrvoBPUzZE-42" value="成功" style="edgeStyle=orthogonalEdgeStyle;rounded=0;orthogonalLoop=1;jettySize=auto;html=1;exitX=0.5;exitY=1;exitDx=0;exitDy=0;" edge="1" parent="1" source="TqsmYCLOViqrvoBPUzZE-28" target="TqsmYCLOViqrvoBPUzZE-41">
          <mxGeometry relative="1" as="geometry" />
        </mxCell>
        <mxCell id="TqsmYCLOViqrvoBPUzZE-58" style="edgeStyle=orthogonalEdgeStyle;rounded=0;orthogonalLoop=1;jettySize=auto;html=1;entryX=1;entryY=0.5;entryDx=0;entryDy=0;" edge="1" parent="1" source="TqsmYCLOViqrvoBPUzZE-28" target="TqsmYCLOViqrvoBPUzZE-57">
          <mxGeometry relative="1" as="geometry" />
        </mxCell>
        <mxCell id="TqsmYCLOViqrvoBPUzZE-59" value="失败" style="edgeLabel;html=1;align=center;verticalAlign=middle;resizable=0;points=[];" vertex="1" connectable="0" parent="TqsmYCLOViqrvoBPUzZE-58">
          <mxGeometry x="-0.0465" y="1" relative="1" as="geometry">
            <mxPoint as="offset" />
          </mxGeometry>
        </mxCell>
        <mxCell id="TqsmYCLOViqrvoBPUzZE-28" value="cookie判断" style="rhombus;whiteSpace=wrap;html=1;" vertex="1" parent="1">
          <mxGeometry x="500" y="690" width="180" height="70" as="geometry" />
        </mxCell>
        <mxCell id="TqsmYCLOViqrvoBPUzZE-44" style="edgeStyle=orthogonalEdgeStyle;rounded=0;orthogonalLoop=1;jettySize=auto;html=1;exitX=0.5;exitY=1;exitDx=0;exitDy=0;" edge="1" parent="1" source="TqsmYCLOViqrvoBPUzZE-41">
          <mxGeometry relative="1" as="geometry">
            <mxPoint x="590" y="980" as="targetPoint" />
          </mxGeometry>
        </mxCell>
        <mxCell id="TqsmYCLOViqrvoBPUzZE-45" value="不允许" style="edgeLabel;html=1;align=center;verticalAlign=middle;resizable=0;points=[];" vertex="1" connectable="0" parent="TqsmYCLOViqrvoBPUzZE-44">
          <mxGeometry x="-0.175" y="2" relative="1" as="geometry">
            <mxPoint as="offset" />
          </mxGeometry>
        </mxCell>
        <mxCell id="TqsmYCLOViqrvoBPUzZE-63" style="edgeStyle=orthogonalEdgeStyle;rounded=0;orthogonalLoop=1;jettySize=auto;html=1;entryX=1;entryY=0.5;entryDx=0;entryDy=0;" edge="1" parent="1" source="TqsmYCLOViqrvoBPUzZE-41" target="TqsmYCLOViqrvoBPUzZE-62">
          <mxGeometry relative="1" as="geometry" />
        </mxCell>
        <mxCell id="TqsmYCLOViqrvoBPUzZE-64" value="允许" style="edgeLabel;html=1;align=center;verticalAlign=middle;resizable=0;points=[];" vertex="1" connectable="0" parent="TqsmYCLOViqrvoBPUzZE-63">
          <mxGeometry x="-0.18" y="3" relative="1" as="geometry">
            <mxPoint as="offset" />
          </mxGeometry>
        </mxCell>
        <mxCell id="TqsmYCLOViqrvoBPUzZE-41" value="请求头判断" style="rhombus;whiteSpace=wrap;html=1;" vertex="1" parent="1">
          <mxGeometry x="500" y="830" width="180" height="70" as="geometry" />
        </mxCell>
        <mxCell id="TqsmYCLOViqrvoBPUzZE-71" style="edgeStyle=orthogonalEdgeStyle;rounded=0;orthogonalLoop=1;jettySize=auto;html=1;" edge="1" parent="1" source="TqsmYCLOViqrvoBPUzZE-46" target="TqsmYCLOViqrvoBPUzZE-70">
          <mxGeometry relative="1" as="geometry" />
        </mxCell>
        <mxCell id="TqsmYCLOViqrvoBPUzZE-72" value="否" style="edgeLabel;html=1;align=center;verticalAlign=middle;resizable=0;points=[];" vertex="1" connectable="0" parent="TqsmYCLOViqrvoBPUzZE-71">
          <mxGeometry x="-0.1" y="-1" relative="1" as="geometry">
            <mxPoint as="offset" />
          </mxGeometry>
        </mxCell>
        <mxCell id="TqsmYCLOViqrvoBPUzZE-73" style="edgeStyle=orthogonalEdgeStyle;rounded=0;orthogonalLoop=1;jettySize=auto;html=1;entryX=0.5;entryY=0;entryDx=0;entryDy=0;" edge="1" parent="1" source="TqsmYCLOViqrvoBPUzZE-46" target="TqsmYCLOViqrvoBPUzZE-65">
          <mxGeometry relative="1" as="geometry" />
        </mxCell>
        <mxCell id="TqsmYCLOViqrvoBPUzZE-46" value="vpn登录态判断" style="rhombus;whiteSpace=wrap;html=1;" vertex="1" parent="1">
          <mxGeometry x="500" y="980" width="180" height="70" as="geometry" />
        </mxCell>
        <mxCell id="TqsmYCLOViqrvoBPUzZE-53" value="网关异常页" style="rounded=1;whiteSpace=wrap;html=1;" vertex="1" parent="1">
          <mxGeometry x="1090" y="555" width="120" height="60" as="geometry" />
        </mxCell>
        <mxCell id="TqsmYCLOViqrvoBPUzZE-57" value="网关异常页" style="rounded=1;whiteSpace=wrap;html=1;" vertex="1" parent="1">
          <mxGeometry x="200" y="695" width="120" height="60" as="geometry" />
        </mxCell>
        <mxCell id="TqsmYCLOViqrvoBPUzZE-66" style="edgeStyle=orthogonalEdgeStyle;rounded=0;orthogonalLoop=1;jettySize=auto;html=1;exitX=0.5;exitY=1;exitDx=0;exitDy=0;" edge="1" parent="1" source="TqsmYCLOViqrvoBPUzZE-62" target="TqsmYCLOViqrvoBPUzZE-65">
          <mxGeometry relative="1" as="geometry">
            <Array as="points">
              <mxPoint x="365" y="1150" />
              <mxPoint x="590" y="1150" />
            </Array>
          </mxGeometry>
        </mxCell>
        <mxCell id="TqsmYCLOViqrvoBPUzZE-68" style="edgeStyle=orthogonalEdgeStyle;rounded=0;orthogonalLoop=1;jettySize=auto;html=1;exitX=0;exitY=0.5;exitDx=0;exitDy=0;" edge="1" parent="1" source="TqsmYCLOViqrvoBPUzZE-62" target="TqsmYCLOViqrvoBPUzZE-67">
          <mxGeometry relative="1" as="geometry" />
        </mxCell>
        <mxCell id="TqsmYCLOViqrvoBPUzZE-69" value="失败" style="edgeLabel;html=1;align=center;verticalAlign=middle;resizable=0;points=[];" vertex="1" connectable="0" parent="TqsmYCLOViqrvoBPUzZE-68">
          <mxGeometry x="0.05" y="3" relative="1" as="geometry">
            <mxPoint as="offset" />
          </mxGeometry>
        </mxCell>
        <mxCell id="TqsmYCLOViqrvoBPUzZE-62" value="&lt;font color=&quot;#7a7e85&quot;&gt;签名认证&lt;/font&gt;" style="rhombus;whiteSpace=wrap;html=1;" vertex="1" parent="1">
          <mxGeometry x="280" y="825" width="170" height="80" as="geometry" />
        </mxCell>
        <mxCell id="TqsmYCLOViqrvoBPUzZE-65" value="请求转发" style="rounded=1;whiteSpace=wrap;html=1;" vertex="1" parent="1">
          <mxGeometry x="530" y="1260" width="120" height="60" as="geometry" />
        </mxCell>
        <mxCell id="TqsmYCLOViqrvoBPUzZE-67" value="网关异常页" style="rounded=1;whiteSpace=wrap;html=1;" vertex="1" parent="1">
          <mxGeometry x="80" y="835" width="120" height="60" as="geometry" />
        </mxCell>
        <mxCell id="TqsmYCLOViqrvoBPUzZE-70" value="网关异常页" style="rounded=1;whiteSpace=wrap;html=1;" vertex="1" parent="1">
          <mxGeometry x="740" y="985" width="120" height="60" as="geometry" />
        </mxCell>
      </root>
    </mxGraphModel>
  </diagram>
</mxfile>
